<svg width="170" height="21" viewBox="0 0 170 21" fill="none" xmlns="http://www.w3.org/2000/svg">
<path d="M0.176 20H6.176L7.712 16.808H17.48L18.992 20H25.016L16.208 2.768H9.008L0.176 20ZM9.632 12.752L12.584 6.584L15.536 12.752H9.632ZM27.7173 4.952V5.576H24.3573V9.632H27.7173V20H33.2373V9.632H38.8533V5.576H33.2373C33.2613 4.376 33.8133 3.872 36.0453 3.872C36.6933 3.872 37.2213 3.92 38.8533 4.04V0.535999C37.5573 0.368 36.0453 0.295999 34.6533 0.295999C29.8773 0.295999 27.7173 2.168 27.7173 4.952ZM41.1973 20H46.7413V12.944C48.6613 10.376 50.7493 9.92 52.3573 9.92C53.5333 9.92 54.4933 10.064 56.0773 10.64V5.816C54.9013 5.312 53.9173 5.096 52.5733 5.096C50.0293 5.096 48.2053 6.104 46.7413 8.72V5.576H41.1973V20ZM58.4473 20H63.9913V5.576H58.4473V20ZM58.4473 4.112H63.9913V0.8H58.4473V4.112ZM72.8011 20H80.9371L87.8731 5.576H81.6811L76.9051 16.328L72.1051 5.576H65.8651L72.8011 20ZM98.3615 20.48C104.53 20.504 107.674 18.608 108.826 14.888H103.402C102.826 15.968 100.978 16.616 98.6975 16.616C95.8655 16.616 94.0415 15.776 93.5615 13.904H108.946C108.946 8.144 105.058 5.096 98.3375 5.096C91.9535 5.096 87.8495 8.072 87.8495 12.8C87.8255 17.48 91.9295 20.48 98.3615 20.48ZM93.6815 11.24C94.2815 9.656 95.9375 8.96 98.5535 8.96C100.954 8.96 102.562 9.608 103.21 11.24H93.6815ZM111.041 20H116.585V12.944C118.505 10.376 120.593 9.92 122.201 9.92C123.377 9.92 124.337 10.064 125.921 10.64V5.816C124.745 5.312 123.761 5.096 122.417 5.096C119.873 5.096 118.049 6.104 116.585 8.72V5.576H111.041V20ZM137.422 20.48C142.99 20.48 146.782 19.4 146.782 15.344C146.782 11.84 143.83 11.264 138.358 10.832L136.87 10.712C134.038 10.496 133.39 10.256 133.39 9.56C133.39 8.912 134.326 8.504 136.822 8.504C139.366 8.504 140.446 8.984 140.47 9.944H146.278C146.038 6.416 142.15 5.096 136.942 5.096C131.758 5.096 127.678 6.176 127.678 9.896C127.678 13.064 130.342 13.712 136.006 14.168L137.254 14.264C140.23 14.504 141.07 14.744 141.07 15.608C141.07 16.424 140.326 16.856 137.326 16.856C133.966 16.856 133.15 16.232 133.15 15.2H127.342C127.318 19.04 131.134 20.48 137.422 20.48ZM158.783 20.48C164.951 20.504 168.095 18.608 169.247 14.888H163.823C163.247 15.968 161.399 16.616 159.119 16.616C156.287 16.616 154.463 15.776 153.983 13.904H169.367C169.367 8.144 165.479 5.096 158.759 5.096C152.375 5.096 148.271 8.072 148.271 12.8C148.247 17.48 152.351 20.48 158.783 20.48ZM154.103 11.24C154.703 9.656 156.359 8.96 158.975 8.96C161.375 8.96 162.983 9.608 163.631 11.24H154.103Z" fill="#1F1F1F"/>
</svg>
