<svg width="11" height="19" viewBox="0 0 11 19" fill="none" xmlns="http://www.w3.org/2000/svg">
<path d="M0.375 18.6125C0.125 18.3625 0 18.0665 0 17.7245C0 17.3832 0.125 17.0875 0.375 16.8375L7.7 9.51251L0.35 2.16251C0.116667 1.92918 0 1.63751 0 1.28751C0 0.937512 0.125 0.637512 0.375 0.387512C0.625 0.137512 0.921 0.0125122 1.263 0.0125122C1.60433 0.0125122 1.9 0.137512 2.15 0.387512L10.55 8.81251C10.65 8.91251 10.721 9.02085 10.763 9.13751C10.8043 9.25418 10.825 9.37918 10.825 9.51251C10.825 9.64585 10.8043 9.77085 10.763 9.88751C10.721 10.0042 10.65 10.1125 10.55 10.2125L2.125 18.6375C1.89167 18.8708 1.60433 18.9875 1.263 18.9875C0.921 18.9875 0.625 18.8625 0.375 18.6125Z" fill="#1F1F1F"/>
</svg>
