<svg width="26" height="26" viewBox="0 0 26 26" fill="none" xmlns="http://www.w3.org/2000/svg">
<path d="M13 0.8125C10.5895 0.8125 8.23322 1.52728 6.22899 2.86646C4.22477 4.20564 2.66267 6.10907 1.74022 8.33605C0.817781 10.563 0.576427 13.0135 1.04668 15.3777C1.51694 17.7418 2.67769 19.9134 4.38214 21.6179C6.08659 23.3223 8.2582 24.4831 10.6223 24.9533C12.9865 25.4236 15.437 25.1822 17.664 24.2598C19.8909 23.3373 21.7944 21.7752 23.1335 19.771C24.4727 17.7668 25.1875 15.4105 25.1875 13C25.1813 9.76958 23.8953 6.67324 21.611 4.38898C19.3268 2.10472 16.2304 0.818695 13 0.8125ZM13 23.3125C10.9604 23.3125 8.96657 22.7077 7.27069 21.5745C5.57481 20.4414 4.25303 18.8308 3.4725 16.9464C2.69197 15.0621 2.48775 12.9886 2.88566 10.9881C3.28357 8.9877 4.26574 7.15019 5.70797 5.70796C7.1502 4.26573 8.98771 3.28356 10.9881 2.88565C12.9886 2.48774 15.0621 2.69196 16.9464 3.47249C18.8308 4.25302 20.4414 5.5748 21.5745 7.27068C22.7077 8.96656 23.3125 10.9604 23.3125 13C23.3094 15.7341 22.2219 18.3553 20.2886 20.2886C18.3553 22.2219 15.7341 23.3094 13 23.3125ZM20.5 13C20.5 13.2486 20.4012 13.4871 20.2254 13.6629C20.0496 13.8387 19.8111 13.9375 19.5625 13.9375H13C12.7514 13.9375 12.5129 13.8387 12.3371 13.6629C12.1613 13.4871 12.0625 13.2486 12.0625 13V6.4375C12.0625 6.18886 12.1613 5.9504 12.3371 5.77459C12.5129 5.59877 12.7514 5.5 13 5.5C13.2486 5.5 13.4871 5.59877 13.6629 5.77459C13.8387 5.9504 13.9375 6.18886 13.9375 6.4375V12.0625H19.5625C19.8111 12.0625 20.0496 12.1613 20.2254 12.3371C20.4012 12.5129 20.5 12.7514 20.5 13Z" fill="#1F1F1F" fill-opacity="0.87"/>
</svg>
