<svg width="1440" height="122" viewBox="0 0 1440 122" fill="none" xmlns="http://www.w3.org/2000/svg">
<mask id="mask0_265_21" style="mask-type:alpha" maskUnits="userSpaceOnUse" x="0" y="0" width="1440" height="122">
<path d="M0 0H1440V122H720H0V0Z" fill="#48B7D3"/>
</mask>
<g mask="url(#mask0_265_21)">
<path d="M112 -572V1154.78" stroke="#F8D3D8"/>
<path d="M240 -572V1154.78" stroke="#F8D3D8"/>
<path d="M368 -572V1154.78" stroke="#F8D3D8"/>
<path d="M496 -572V1154.78" stroke="#F8D3D8"/>
<path d="M624 -572V1154.78" stroke="#F8D3D8"/>
<path d="M752 -572V1154.78" stroke="#F8D3D8"/>
<path d="M880 -572V1154.78" stroke="#F8D3D8"/>
<path d="M1008 -572V1154.78" stroke="#F8D3D8"/>
<path d="M1136 -572V1154.78" stroke="#F8D3D8"/>
<path d="M1264 -572V1154.78" stroke="#F8D3D8"/>
<path d="M1392 -572V1154.78" stroke="#F8D3D8"/>
<path d="M48 -569.779V1157" stroke="#F8D3D8"/>
<path d="M48 -569.779V1157" stroke="#F8D3D8"/>
<path d="M176 -569.779V1157" stroke="#F8D3D8"/>
<path d="M304 -569.779V1157" stroke="#F8D3D8"/>
<path d="M432 -569.779V1157" stroke="#F8D3D8"/>
<path d="M560 -569.779V1157" stroke="#F8D3D8"/>
<path d="M688 -569.779V1157" stroke="#F8D3D8"/>
<path d="M816 -569.779V1157" stroke="#F8D3D8"/>
<path d="M944 -569.779V1157" stroke="#F8D3D8"/>
<path d="M1072 -569.779V1157" stroke="#F8D3D8"/>
<path d="M1200 -569.779V1157" stroke="#F8D3D8"/>
<path d="M1328 -569.779V1157" stroke="#F8D3D8"/>
<path d="M1584 68L-141 68" stroke="#F8D3D8"/>
<path d="M1581 4L-144 3.99997" stroke="#F8D3D8"/>
</g>
</svg>
