<svg width="16" height="21" viewBox="0 0 16 21" fill="none" xmlns="http://www.w3.org/2000/svg">
<path d="M3.57143 4.78571V6.21429H2.5C1.83696 6.21429 1.20107 6.47768 0.732233 6.94652C0.263392 7.41536 0 8.05124 0 8.71429V18C0 18.663 0.263392 19.2989 0.732233 19.7678C1.20107 20.2366 1.83696 20.5 2.5 20.5H13.2143C13.8773 20.5 14.5132 20.2366 14.9821 19.7678C15.4509 19.2989 15.7143 18.663 15.7143 18V8.71429C15.7143 8.05124 15.4509 7.41536 14.9821 6.94652C14.5132 6.47768 13.8773 6.21429 13.2143 6.21429H12.1429V4.78571C12.1429 3.64907 11.6913 2.55898 10.8876 1.75526C10.0839 0.951529 8.99378 0.5 7.85714 0.5C6.7205 0.5 5.63041 0.951529 4.82669 1.75526C4.02296 2.55898 3.57143 3.64907 3.57143 4.78571ZM7.85714 1.92857C8.6149 1.92857 9.34163 2.22959 9.87745 2.76541C10.4133 3.30123 10.7143 4.02795 10.7143 4.78571V6.21429H5V4.78571C5 4.02795 5.30102 3.30123 5.83684 2.76541C6.37266 2.22959 7.09938 1.92857 7.85714 1.92857ZM7.85714 14.7857C7.47826 14.7857 7.1149 14.6352 6.84699 14.3673C6.57908 14.0994 6.42857 13.736 6.42857 13.3571C6.42857 12.9783 6.57908 12.6149 6.84699 12.347C7.1149 12.0791 7.47826 11.9286 7.85714 11.9286C8.23602 11.9286 8.59939 12.0791 8.8673 12.347C9.1352 12.6149 9.28571 12.9783 9.28571 13.3571C9.28571 13.736 9.1352 14.0994 8.8673 14.3673C8.59939 14.6352 8.23602 14.7857 7.85714 14.7857Z" fill="#1F1F1F" fill-opacity="0.47"/>
</svg>
